<svg id="logo" xmlns="http://www.w3.org/2000/svg" width="123.1" height="133" viewBox="0 0 123.1 133">
  <path id="Path_34258" data-name="Path 34258" d="M358-887.8v50.672h12.662l3.09-3.09,3.09-3.09v-76.347l-9.421-9.421L358-938.5Z" transform="translate(-356.493 938.5)" fill="#163271"/>
  <path id="Path_34259" data-name="Path 34259" d="M540.117-929.408l8.592,8.617,8.592-8.617L565.918-938H531.5Z" transform="translate(-486.405 938.125)" fill="#0f234f"/>
  <path id="Path_34260" data-name="Path 34260" d="M777.22-927.755l-9.22,9.22v82.276h18.591V-886.63c0-27.71-.025-50.37-.075-50.37C786.49-937,782.32-932.855,777.22-927.755Z" transform="translate(-663.49 937.377)" fill="#2d65e4"/>
  <path id="Path_34273" data-name="Path 34273" d="M777.22-930.109,768-923.236v61.328h18.591v-37.546c0-20.655-.025-37.546-.075-37.546C786.49-937,782.32-933.91,777.22-930.109Z" transform="translate(-688.864 963.278)" fill="#285acd"/>
  <path id="Path_34274" data-name="Path 34274" d="M777.22-932.665,768-928.341v38.582h18.591v-23.621c0-12.995-.025-23.621-.075-23.621C786.49-937,782.32-935.056,777.22-932.665Z" transform="translate(-714.41 990.876)" fill="#1f469f"/>
  <path id="Path_34261" data-name="Path 34261" d="M460-804.758v29.243l9.371-9.371,9.4-9.4V-815.36l-9.27-9.22c-5.1-5.075-9.32-9.27-9.4-9.321C460.05-833.951,460-820.837,460-804.758Z" transform="translate(-432.868 860.179)" fill="#11285a"/>
  <path id="Path_34262" data-name="Path 34262" d="M562-740.6c0,5.05.05,5.7.377,5.426.2-.176.3-.4.226-.528s0-.2.2-.176a.211.211,0,0,0,.276-.251c-.05-.151.075-.276.251-.251.151.05.276-.075.251-.251-.05-.151.075-.276.251-.251.151.05.276-.075.251-.251-.05-.151.075-.276.251-.251.151.05.276-.075.226-.251-.025-.2.05-.276.176-.2.3.2.829-.452.578-.729-.1-.126-.05-.126.1-.05.352.2,1.181-.653.93-.93-.126-.1-.025-.151.176-.1.226.05.352-.075.3-.3-.05-.2,0-.3.1-.2s.326.075.528-.1c.276-.226.251-.377-.2-.854-.3-.327-.653-.528-.8-.427-.151.075-.176.025-.1-.1.176-.3-.653-1.156-.9-.955-.1.075-.126.05-.05-.05.2-.251-.653-1.08-.955-.9-.126.075-.176.025-.1-.1.2-.327-.427-.9-.678-.628-.1.1-.151,0-.1-.2s-.075-.352-.251-.3c-.2.025-.276-.025-.2-.151s-.151-.5-.477-.8L562-746.3Z" transform="translate(-509.243 794.584)" fill="#0f234f"/>
  <path id="Path_34263" data-name="Path 34263" d="M450.034-619.866,437.9-607.732h24.645v-12.134c0-6.683-.075-12.134-.176-12.134S456.742-626.548,450.034-619.866Z" transform="translate(-416.32 709.001)" fill="#11285a"/>
  <text id="H_a_k_a_t_h_o_n" data-name="H a k a t h o n" transform="translate(56 127)" fill="#100f0f" font-size="17" font-family="Poppins-Bold, Poppins" font-weight="700" opacity="0.8"><tspan x="-55" y="0">H a k a t h o n</tspan></text>
</svg>
